<?xml version="1.0" encoding="UTF-8" standalone="no"?>
<svg
   xmlns:dc="http://purl.org/dc/elements/1.1/"
   xmlns:cc="http://creativecommons.org/ns#"
   xmlns:rdf="http://www.w3.org/1999/02/22-rdf-syntax-ns#"
   xmlns:svg="http://www.w3.org/2000/svg"
   xmlns="http://www.w3.org/2000/svg"
   xmlns:sodipodi="http://sodipodi.sourceforge.net/DTD/sodipodi-0.dtd"
   xmlns:inkscape="http://www.inkscape.org/namespaces/inkscape"
   version="1.1"
   id="svg2"
   xml:space="preserve"
   width="892"
   height="892"
   viewBox="0 0 800 800"
   sodipodi:docname="ODUJE41.eps"><metadata
     id="metadata8"><rdf:RDF><cc:Work
         rdf:about=""><dc:format>image/svg+xml</dc:format><dc:type
           rdf:resource="http://purl.org/dc/dcmitype/StillImage" /></cc:Work></rdf:RDF></metadata><defs
     id="defs6"><clipPath
       clipPathUnits="userSpaceOnUse"
       id="clipPath20"><path
         d="m 3182.34,4108.14 c 56.14,-21.78 114.23,-39.65 172.87,-53.32 218.5,-50.94 421.4,-174.87 568.77,-366.65 132.7,-172.68 200.68,-374.7 207.78,-576.93 274.63,565.71 -223.16,1126.56 -893.55,1852.13 -765.41,828.42 162.71,1726.62 162.71,1726.62 C 2062.32,5848 2183.34,4495.62 3182.34,4108.14 Z"
         id="path18" /></clipPath><linearGradient
       x1="0"
       y1="0"
       x2="1"
       y2="0"
       gradientUnits="userSpaceOnUse"
       gradientTransform="matrix(2008.31,-2613.47,-2613.47,-2008.31,2627.13,6111.76)"
       spreadMethod="pad"
       id="linearGradient30"><stop
         style="stop-opacity:1;stop-color:#fbcd29"
         offset="0"
         id="stop22" /><stop
         style="stop-opacity:1;stop-color:#fbcd29"
         offset="0.0175183"
         id="stop24" /><stop
         style="stop-opacity:1;stop-color:#f8a62d"
         offset="0.351204"
         id="stop26" /><stop
         style="stop-opacity:1;stop-color:#f14624"
         offset="1"
         id="stop28" /></linearGradient><clipPath
       clipPathUnits="userSpaceOnUse"
       id="clipPath40"><path
         d="m 2955.31,4017.11 c 59.98,-5.09 120.77,-5.89 180.86,-2.51 224.01,12.64 453.6,-49.17 649.01,-191.71 175.94,-128.34 298.03,-303.06 361.78,-495.11 104.28,620.14 -531.26,1018.18 -1378.78,1525.7 -967.65,579.46 -329.9,1702.61 -329.9,1702.61 C 1390.82,5371.34 1887.63,4107.71 2955.31,4017.11 Z"
         id="path38" /></clipPath><linearGradient
       x1="0"
       y1="0"
       x2="1"
       y2="0"
       gradientUnits="userSpaceOnUse"
       gradientTransform="matrix(2662.81,-1942.31,-1942.31,-2662.81,1858.55,5783.38)"
       spreadMethod="pad"
       id="linearGradient50"><stop
         style="stop-opacity:1;stop-color:#fbcd29"
         offset="0"
         id="stop42" /><stop
         style="stop-opacity:1;stop-color:#fbcd29"
         offset="0.0175183"
         id="stop44" /><stop
         style="stop-opacity:1;stop-color:#f8a62d"
         offset="0.351204"
         id="stop46" /><stop
         style="stop-opacity:1;stop-color:#f14624"
         offset="1"
         id="stop48" /></linearGradient><clipPath
       clipPathUnits="userSpaceOnUse"
       id="clipPath60"><path
         d="m 2763.11,3865.85 c 58.99,12.01 117.53,28.35 174.25,48.52 211.39,75.17 449.09,80.49 676.71,-1.28 204.95,-73.63 371.29,-206.91 486.52,-373.25 -74.5,624.41 -796.39,827.46 -1752.51,1075.89 -1091.63,283.64 -795.83,1540.89 -795.83,1540.89 -671.602,-1431.7 160.82,-2504.38 1210.83,-2290.77 0.01,0 0.02,0 0.03,0 z"
         id="path58" /></clipPath><linearGradient
       x1="0"
       y1="0"
       x2="1"
       y2="0"
       gradientUnits="userSpaceOnUse"
       gradientTransform="matrix(3101.89,-1114.39,-1114.39,-3101.89,1213.46,5252.01)"
       spreadMethod="pad"
       id="linearGradient70"><stop
         style="stop-opacity:1;stop-color:#fbcd29"
         offset="0"
         id="stop62" /><stop
         style="stop-opacity:1;stop-color:#fbcd29"
         offset="0.0175183"
         id="stop64" /><stop
         style="stop-opacity:1;stop-color:#f8a62d"
         offset="0.351204"
         id="stop66" /><stop
         style="stop-opacity:1;stop-color:#f14624"
         offset="1"
         id="stop68" /></linearGradient><clipPath
       clipPathUnits="userSpaceOnUse"
       id="clipPath80"><path
         d="m 2621.21,3666.6 c 53.24,28.12 104.81,60.28 153.56,95.6 181.68,131.64 408.27,203.66 649.71,189.27 217.39,-12.95 414.53,-94.03 571.92,-221.21 -247.26,578.2 -997.11,569.83 -1984.5,539.08 C 884.566,4234.21 814.504,5523.9 814.504,5523.9 573.07,3961.04 1673.78,3166.06 2621.21,3666.6 Z"
         id="path78" /></clipPath><linearGradient
       x1="0"
       y1="0"
       x2="1"
       y2="0"
       gradientUnits="userSpaceOnUse"
       gradientTransform="matrix(3290.14,-196.116,-196.116,-3290.14,744.056,4560.49)"
       spreadMethod="pad"
       id="linearGradient90"><stop
         style="stop-opacity:1;stop-color:#fbcd29"
         offset="0"
         id="stop82" /><stop
         style="stop-opacity:1;stop-color:#fbcd29"
         offset="0.0175183"
         id="stop84" /><stop
         style="stop-opacity:1;stop-color:#f8a62d"
         offset="0.351204"
         id="stop86" /><stop
         style="stop-opacity:1;stop-color:#f14624"
         offset="1"
         id="stop88" /></linearGradient><clipPath
       clipPathUnits="userSpaceOnUse"
       id="clipPath100"><path
         d="m 2541.16,3435.46 c 43.15,41.97 83.61,87.37 120.44,134.98 137.28,177.45 334.43,310.34 570.16,364.5 212.25,48.76 424.23,26.46 611.06,-51.28 -400.02,485.22 -1117.19,266.11 -2056,-41.34 C 714.961,3491.28 284.695,4709.09 284.695,4709.09 492.957,3141.47 1772.94,2688.47 2541.16,3435.46 Z"
         id="path98" /></clipPath><linearGradient
       x1="0"
       y1="0"
       x2="1"
       y2="0"
       gradientUnits="userSpaceOnUse"
       gradientTransform="matrix(3212.29,737.977,737.977,-3212.29,488.292,3764.8)"
       spreadMethod="pad"
       id="linearGradient110"><stop
         style="stop-opacity:1;stop-color:#fbcd29"
         offset="0"
         id="stop102" /><stop
         style="stop-opacity:1;stop-color:#fbcd29"
         offset="0.0175183"
         id="stop104" /><stop
         style="stop-opacity:1;stop-color:#f8a62d"
         offset="0.351204"
         id="stop106" /><stop
         style="stop-opacity:1;stop-color:#f14624"
         offset="1"
         id="stop108" /></linearGradient><clipPath
       clipPathUnits="userSpaceOnUse"
       id="clipPath120"><path
         d="m 2529.4,3191.15 c 29.61,52.42 55.64,107.35 77.59,163.42 81.77,208.92 233.55,391.93 444.49,510.25 189.94,106.54 399.63,144.81 600.79,122.81 -520.43,353 -1146.93,-59.13 -1961.22,-618.42 C 761.344,2730.64 5.67188,3778.09 5.67188,3778.09 646.785,2332.48 2002.53,2258.11 2529.4,3191.15 Z"
         id="path118" /></clipPath><linearGradient
       x1="0"
       y1="0"
       x2="1"
       y2="0"
       gradientUnits="userSpaceOnUse"
       gradientTransform="matrix(2874.69,1612.36,1612.36,-2874.69,466.837,2929.3)"
       spreadMethod="pad"
       id="linearGradient130"><stop
         style="stop-opacity:1;stop-color:#fbcd29"
         offset="0"
         id="stop122" /><stop
         style="stop-opacity:1;stop-color:#fbcd29"
         offset="0.0175183"
         id="stop124" /><stop
         style="stop-opacity:1;stop-color:#f8a62d"
         offset="0.351204"
         id="stop126" /><stop
         style="stop-opacity:1;stop-color:#f14624"
         offset="1"
         id="stop128" /></linearGradient><clipPath
       clipPathUnits="userSpaceOnUse"
       id="clipPath140"><path
         d="m 2586.9,2953.4 c 13.65,58.63 23.17,118.67 28.44,178.64 19.66,223.5 113.78,441.83 282.89,614.75 152.27,155.7 342.71,251.45 541.92,286.96 C 2841.41,4225.98 2356.25,3654.16 1732.33,2888.27 1019.97,2013.82 0,2806.19 0,2806.19 1022.12,1599.51 2343.97,1909.78 2586.9,2953.4 Z"
         id="path138" /></clipPath><linearGradient
       x1="0"
       y1="0"
       x2="1"
       y2="0"
       gradientUnits="userSpaceOnUse"
       gradientTransform="matrix(2304.6,2356.35,2356.35,-2304.6,681.439,2121.54)"
       spreadMethod="pad"
       id="linearGradient150"><stop
         style="stop-opacity:1;stop-color:#fbcd29"
         offset="0"
         id="stop142" /><stop
         style="stop-opacity:1;stop-color:#fbcd29"
         offset="0.0175183"
         id="stop144" /><stop
         style="stop-opacity:1;stop-color:#f8a62d"
         offset="0.351204"
         id="stop146" /><stop
         style="stop-opacity:1;stop-color:#f14624"
         offset="1"
         id="stop148" /></linearGradient><clipPath
       clipPathUnits="userSpaceOnUse"
       id="clipPath160"><path
         d="m 2709,2741.45 c -3.41,60.11 -11.17,120.39 -23,179.43 -44.05,219.99 -15.19,455.99 98.41,669.52 102.28,192.26 258.07,337.75 439.22,427.9 C 2594.99,4034.21 2290.42,3348.95 1907.31,2438.39 1469.91,1398.78 268.145,1872 268.145,1872 1588.6,1001.83 2769.67,1671.65 2709,2741.45 Z"
         id="path158" /></clipPath><linearGradient
       x1="0"
       y1="0"
       x2="1"
       y2="0"
       gradientUnits="userSpaceOnUse"
       gradientTransform="matrix(1548.17,2909.79,2909.79,-1548.17,1114.73,1406.85)"
       spreadMethod="pad"
       id="linearGradient170"><stop
         style="stop-opacity:1;stop-color:#fbcd29"
         offset="0"
         id="stop162" /><stop
         style="stop-opacity:1;stop-color:#fbcd29"
         offset="0.0175183"
         id="stop164" /><stop
         style="stop-opacity:1;stop-color:#f8a62d"
         offset="0.351204"
         id="stop166" /><stop
         style="stop-opacity:1;stop-color:#f14624"
         offset="1"
         id="stop168" /></linearGradient><clipPath
       clipPathUnits="userSpaceOnUse"
       id="clipPath180"><path
         d="m 2885.82,2572.44 c -20.19,56.73 -44.61,112.38 -72.57,165.7 -104.2,198.7 -142.94,433.28 -94.04,670.15 44.02,213.28 152.56,396.73 301.01,534.24 C 2412.52,3780.84 2313.16,3037.55 2201.86,2055.97 2074.79,935.27 788.41,1051.06 788.41,1051.06 2300.42,587.781 3245.18,1562.98 2885.82,2572.44 Z"
         id="path178" /></clipPath><linearGradient
       x1="0"
       y1="0"
       x2="1"
       y2="0"
       gradientUnits="userSpaceOnUse"
       gradientTransform="matrix(666.413,3227.92,3227.92,-666.413,1731.72,843.04)"
       spreadMethod="pad"
       id="linearGradient190"><stop
         style="stop-opacity:1;stop-color:#fbcd29"
         offset="0"
         id="stop182" /><stop
         style="stop-opacity:1;stop-color:#fbcd29"
         offset="0.0175183"
         id="stop184" /><stop
         style="stop-opacity:1;stop-color:#f8a62d"
         offset="0.351204"
         id="stop186" /><stop
         style="stop-opacity:1;stop-color:#f14624"
         offset="1"
         id="stop188" /></linearGradient><clipPath
       clipPathUnits="userSpaceOnUse"
       id="clipPath200"><path
         d="m 3103.07,2460.04 c -35.34,48.75 -74.45,95.28 -116.29,138.57 -155.91,161.34 -259.12,375.52 -278.87,616.58 -17.79,217.05 34.71,423.63 138.45,597.37 C 2308.75,3486.34 2422.64,2745.14 2592.15,1771.92 2785.69,660.77 1518.73,409.77 1518.73,409.77 3100.01,390.852 3732.05,1592.55 3103.07,2460.04 Z"
         id="path198" /></clipPath><linearGradient
       x1="0"
       y1="0"
       x2="1"
       y2="0"
       gradientUnits="userSpaceOnUse"
       gradientTransform="matrix(-269.267,3284.93,3284.93,269.267,2482.47,475.73)"
       spreadMethod="pad"
       id="linearGradient210"><stop
         style="stop-opacity:1;stop-color:#fbcd29"
         offset="0"
         id="stop202" /><stop
         style="stop-opacity:1;stop-color:#fbcd29"
         offset="0.0175183"
         id="stop204" /><stop
         style="stop-opacity:1;stop-color:#f8a62d"
         offset="0.351204"
         id="stop206" /><stop
         style="stop-opacity:1;stop-color:#f14624"
         offset="1"
         id="stop208" /></linearGradient><clipPath
       clipPathUnits="userSpaceOnUse"
       id="clipPath220"><path
         d="m 3343.17,2413.34 c -47.62,36.82 -98.28,70.49 -150.6,100.24 -195.01,110.92 -354.34,287.39 -441.15,513.14 -78.17,203.26 -85.94,416.27 -35.3,612.18 C 2292.08,3174.54 2610,2495.37 3046.61,1609.23 3545.11,597.492 2400.03,0 2400.03,0 3922.7,426.961 4190.91,1757.98 3343.17,2413.34 Z"
         id="path218" /></clipPath><linearGradient
       x1="0"
       y1="0"
       x2="1"
       y2="0"
       gradientUnits="userSpaceOnUse"
       gradientTransform="matrix(-1182.92,3076.44,3076.44,1182.92,3306.22,334.52)"
       spreadMethod="pad"
       id="linearGradient230"><stop
         style="stop-opacity:1;stop-color:#fbcd29"
         offset="0"
         id="stop222" /><stop
         style="stop-opacity:1;stop-color:#fbcd29"
         offset="0.0175183"
         id="stop224" /><stop
         style="stop-opacity:1;stop-color:#f8a62d"
         offset="0.351204"
         id="stop226" /><stop
         style="stop-opacity:1;stop-color:#f14624"
         offset="1"
         id="stop228" /></linearGradient></defs><sodipodi:namedview
     pagecolor="#ffffff"
     bordercolor="#666666"
     borderopacity="1"
     objecttolerance="10"
     gridtolerance="10"
     guidetolerance="10"
     inkscape:pageopacity="0"
     inkscape:pageshadow="2"
     inkscape:window-width="640"
     inkscape:window-height="480"
     id="namedview4" /><g
     id="g10"
     inkscape:groupmode="layer"
     inkscape:label="ink_ext_XXXXXX"
     transform="matrix(1.3333333,0,0,-1.3333333,0,892)"><g
       id="g12"
       transform="scale(0.1)"><g
         id="g14"><g
           id="g16"
           clip-path="url(#clipPath20)"><path
             d="m 3182.34,4108.14 c 56.14,-21.78 114.23,-39.65 172.87,-53.32 218.5,-50.94 421.4,-174.87 568.77,-366.65 132.7,-172.68 200.68,-374.7 207.78,-576.93 274.63,565.71 -223.16,1126.56 -893.55,1852.13 -765.41,828.42 162.71,1726.62 162.71,1726.62 C 2062.32,5848 2183.34,4495.62 3182.34,4108.14 v 0"
             style="fill:url(#linearGradient30);fill-opacity:1;fill-rule:nonzero;stroke:none"
             id="path32" /></g></g><g
         id="g34"><g
           id="g36"
           clip-path="url(#clipPath40)"><path
             d="m 2955.31,4017.11 c 59.98,-5.09 120.77,-5.89 180.86,-2.51 224.01,12.64 453.6,-49.17 649.01,-191.71 175.94,-128.34 298.03,-303.06 361.78,-495.11 104.28,620.14 -531.26,1018.18 -1378.78,1525.7 -967.65,579.46 -329.9,1702.61 -329.9,1702.61 C 1390.82,5371.34 1887.63,4107.71 2955.31,4017.11 v 0"
             style="fill:url(#linearGradient50);fill-opacity:1;fill-rule:nonzero;stroke:none"
             id="path52" /></g></g><g
         id="g54"><g
           id="g56"
           clip-path="url(#clipPath60)"><path
             d="m 2763.11,3865.85 c 58.99,12.01 117.53,28.35 174.25,48.52 211.39,75.17 449.09,80.49 676.71,-1.28 204.95,-73.63 371.29,-206.91 486.52,-373.25 -74.5,624.41 -796.39,827.46 -1752.51,1075.89 -1091.63,283.64 -795.83,1540.89 -795.83,1540.89 -671.602,-1431.7 160.82,-2504.38 1210.83,-2290.77 0.01,0 0.02,0 0.03,0"
             style="fill:url(#linearGradient70);fill-opacity:1;fill-rule:nonzero;stroke:none"
             id="path72" /></g></g><g
         id="g74"><g
           id="g76"
           clip-path="url(#clipPath80)"><path
             d="m 2621.21,3666.6 c 53.24,28.12 104.81,60.28 153.56,95.6 181.68,131.64 408.27,203.66 649.71,189.27 217.39,-12.95 414.53,-94.03 571.92,-221.21 -247.26,578.2 -997.11,569.83 -1984.5,539.08 C 884.566,4234.21 814.504,5523.9 814.504,5523.9 573.07,3961.04 1673.78,3166.06 2621.21,3666.6 v 0"
             style="fill:url(#linearGradient90);fill-opacity:1;fill-rule:nonzero;stroke:none"
             id="path92" /></g></g><g
         id="g94"><g
           id="g96"
           clip-path="url(#clipPath100)"><path
             d="m 2541.16,3435.46 c 43.15,41.97 83.61,87.37 120.44,134.98 137.28,177.45 334.43,310.34 570.16,364.5 212.25,48.76 424.23,26.46 611.06,-51.28 -400.02,485.22 -1117.19,266.11 -2056,-41.34 C 714.961,3491.28 284.695,4709.09 284.695,4709.09 492.957,3141.47 1772.94,2688.47 2541.16,3435.46 v 0"
             style="fill:url(#linearGradient110);fill-opacity:1;fill-rule:nonzero;stroke:none"
             id="path112" /></g></g><g
         id="g114"><g
           id="g116"
           clip-path="url(#clipPath120)"><path
             d="m 2529.4,3191.15 c 29.61,52.42 55.64,107.35 77.59,163.42 81.77,208.92 233.55,391.93 444.49,510.25 189.94,106.54 399.63,144.81 600.79,122.81 -520.43,353 -1146.93,-59.13 -1961.22,-618.42 C 761.344,2730.64 5.67188,3778.09 5.67188,3778.09 646.785,2332.48 2002.53,2258.11 2529.4,3191.15 v 0"
             style="fill:url(#linearGradient130);fill-opacity:1;fill-rule:nonzero;stroke:none"
             id="path132" /></g></g><g
         id="g134"><g
           id="g136"
           clip-path="url(#clipPath140)"><path
             d="m 2586.9,2953.4 c 13.65,58.63 23.17,118.67 28.44,178.64 19.66,223.5 113.78,441.83 282.89,614.75 152.27,155.7 342.71,251.45 541.92,286.96 C 2841.41,4225.98 2356.25,3654.16 1732.33,2888.27 1019.97,2013.82 0,2806.19 0,2806.19 1022.12,1599.51 2343.97,1909.78 2586.9,2953.4 v 0"
             style="fill:url(#linearGradient150);fill-opacity:1;fill-rule:nonzero;stroke:none"
             id="path152" /></g></g><g
         id="g154"><g
           id="g156"
           clip-path="url(#clipPath160)"><path
             d="m 2709,2741.45 c -3.41,60.11 -11.17,120.39 -23,179.43 -44.05,219.99 -15.19,455.99 98.41,669.52 102.28,192.26 258.07,337.75 439.22,427.9 C 2594.99,4034.21 2290.42,3348.95 1907.31,2438.39 1469.91,1398.78 268.145,1872 268.145,1872 1588.6,1001.83 2769.67,1671.65 2709,2741.45 v 0"
             style="fill:url(#linearGradient170);fill-opacity:1;fill-rule:nonzero;stroke:none"
             id="path172" /></g></g><g
         id="g174"><g
           id="g176"
           clip-path="url(#clipPath180)"><path
             d="m 2885.82,2572.44 c -20.19,56.73 -44.61,112.38 -72.57,165.7 -104.2,198.7 -142.94,433.28 -94.04,670.15 44.02,213.28 152.56,396.73 301.01,534.24 C 2412.52,3780.84 2313.16,3037.55 2201.86,2055.97 2074.79,935.27 788.41,1051.06 788.41,1051.06 2300.42,587.781 3245.18,1562.98 2885.82,2572.44 v 0"
             style="fill:url(#linearGradient190);fill-opacity:1;fill-rule:nonzero;stroke:none"
             id="path192" /></g></g><g
         id="g194"><g
           id="g196"
           clip-path="url(#clipPath200)"><path
             d="m 3103.07,2460.04 c -35.34,48.75 -74.45,95.28 -116.29,138.57 -155.91,161.34 -259.12,375.52 -278.87,616.58 -17.79,217.05 34.71,423.63 138.45,597.37 C 2308.75,3486.34 2422.64,2745.14 2592.15,1771.92 2785.69,660.77 1518.73,409.77 1518.73,409.77 3100.01,390.852 3732.05,1592.55 3103.07,2460.04 v 0"
             style="fill:url(#linearGradient210);fill-opacity:1;fill-rule:nonzero;stroke:none"
             id="path212" /></g></g><g
         id="g214"><g
           id="g216"
           clip-path="url(#clipPath220)"><path
             d="m 3343.17,2413.34 c -47.62,36.82 -98.28,70.49 -150.6,100.24 -195.01,110.92 -354.34,287.39 -441.15,513.14 -78.17,203.26 -85.94,416.27 -35.3,612.18 C 2292.08,3174.54 2610,2495.37 3046.61,1609.23 3545.11,597.492 2400.03,0 2400.03,0 3922.7,426.961 4190.91,1757.98 3343.17,2413.34 v 0"
             style="fill:url(#linearGradient230);fill-opacity:1;fill-rule:nonzero;stroke:none"
             id="path232" /></g></g></g></g></svg>
